<svg xmlns="http://www.w3.org/2000/svg" version="1.1" xmlns:xlink="http://www.w3.org/1999/xlink" width="1000" height="1000"><g clip-path="url(#SvgjsClipPath1200)"><rect width="1000" height="1000" fill="#f8f2e8"></rect><g transform="matrix(7.462686567164179,0,0,7.462686567164179,0,29.85074626865668)"><svg xmlns="http://www.w3.org/2000/svg" version="1.1" xmlns:xlink="http://www.w3.org/1999/xlink" width="134" height="126"><svg width="134" height="126" viewBox="0 0 134 126" fill="none" xmlns="http://www.w3.org/2000/svg">
<rect width="134" height="126" fill="#F8F2E8"></rect>
<path d="M16.264 28.072H11.224V23.88H26.072V28.072H21.048V45H16.264V28.072ZM39.4245 36.504H32.1285V45H27.3605V23.88H32.1285V32.328H39.4245V23.88H44.1765V45H39.4245V36.504Z" fill="#70161E"></path>
<rect x="47" y="24" width="12.2878" height="4.75" fill="#70161E"></rect>
<rect x="47" y="32" width="12.2878" height="4.75" fill="#70161E"></rect>
<rect x="47" y="40.25" width="12.2878" height="4.75" fill="#70161E"></rect>
<path d="M16.632 62.924C16.632 64.1293 16.8773 65.2227 17.368 66.204C17.8693 67.1747 18.5573 67.948 19.432 68.524C20.3173 69.1 21.3413 69.388 22.504 69.388C23.6667 69.388 24.6853 69.1 25.56 68.524C26.4453 67.948 27.1333 67.1747 27.624 66.204C28.1253 65.2227 28.376 64.1293 28.376 62.924C28.376 61.7187 28.1253 60.6307 27.624 59.66C27.1333 58.6893 26.4453 57.916 25.56 57.34C24.6853 56.7533 23.6667 56.46 22.504 56.46C21.3413 56.46 20.3173 56.7533 19.432 57.34C18.5573 57.916 17.8693 58.6893 17.368 59.66C16.8773 60.6307 16.632 61.7187 16.632 62.924ZM11.656 62.924C11.656 61.388 11.928 59.9587 12.472 58.636C13.016 57.3027 13.7787 56.14 14.76 55.148C15.7413 54.156 16.8933 53.3827 18.216 52.828C19.5387 52.2733 20.968 51.996 22.504 51.996C24.0613 51.996 25.496 52.2733 26.808 52.828C28.1307 53.3827 29.2773 54.156 30.248 55.148C31.2293 56.14 31.9867 57.3027 32.52 58.636C33.064 59.9587 33.336 61.388 33.336 62.924C33.336 64.4707 33.0747 65.9107 32.552 67.244C32.0293 68.5667 31.2827 69.7293 30.312 70.732C29.3413 71.724 28.1947 72.4973 26.872 73.052C25.5493 73.6067 24.0933 73.884 22.504 73.884C20.8827 73.884 19.4053 73.6067 18.072 73.052C16.7493 72.4973 15.608 71.724 14.648 70.732C13.688 69.7293 12.9467 68.5667 12.424 67.244C11.912 65.9107 11.656 64.4707 11.656 62.924ZM34.83 52.38H42.51C43.8647 52.38 45.086 52.62 46.174 53.1C47.262 53.5693 48.126 54.2893 48.766 55.26C49.4167 56.22 49.742 57.4253 49.742 58.876C49.742 60.316 49.4167 61.5427 48.766 62.556C48.126 63.5587 47.262 64.3267 46.174 64.86C45.086 65.3827 43.8647 65.644 42.51 65.644H39.614V73.5H34.83V52.38ZM39.614 61.868H41.182C41.8327 61.868 42.414 61.772 42.926 61.58C43.4487 61.388 43.8647 61.084 44.174 60.668C44.4833 60.2413 44.638 59.6813 44.638 58.988C44.638 58.284 44.4833 57.7293 44.174 57.324C43.8647 56.908 43.4487 56.6093 42.926 56.428C42.414 56.2467 41.8327 56.156 41.182 56.156H39.614V61.868ZM70.015 56.764L70.367 56.828V73.5H65.583V52.38H72.111L80.671 69.02L80.319 69.084V52.38H85.103V73.5H78.543L70.015 56.764Z" fill="#4D5E19"></path>
<path d="M22.5 67L21.4897 63.8906H18.2202L20.8653 61.9688L19.855 58.8594L22.5 60.7812L25.145 58.8594L24.1347 61.9688L26.7798 63.8906H23.5103L22.5 67Z" fill="#4D5E19"></path>
<rect x="51" y="52.5" width="12.2878" height="4.75" fill="#4D5E19"></rect>
<rect x="51" y="60.5" width="12.2878" height="4.75" fill="#4D5E19"></rect>
<rect x="51" y="68.75" width="12.2878" height="4.75" fill="#4D5E19"></rect>
<path d="M12.376 80.88H18.728C20.9787 80.88 22.84 81.3333 24.312 82.24C25.7947 83.136 26.904 84.3787 27.64 85.968C28.376 87.5573 28.744 89.376 28.744 91.424C28.744 93.4827 28.376 95.3067 27.64 96.896C26.904 98.4853 25.7947 99.7333 24.312 100.64C22.84 101.547 20.9787 102 18.728 102H12.376V80.88ZM17.144 85.12V97.76H18.296C19.5013 97.76 20.4987 97.488 21.288 96.944C22.0773 96.3893 22.6693 95.6373 23.064 94.688C23.4693 93.728 23.672 92.6507 23.672 91.456C23.672 90.2507 23.4747 89.1733 23.08 88.224C22.696 87.264 22.104 86.5067 21.304 85.952C20.504 85.3973 19.5013 85.12 18.296 85.12H17.144ZM30.4427 80.88H35.2267V102H30.4427V80.88ZM45.339 80.496C46.651 80.496 47.7977 80.64 48.779 80.928C49.7603 81.216 50.5497 81.52 51.147 81.84C51.7443 82.16 52.107 82.3733 52.235 82.48L49.931 86.336C49.7603 86.208 49.467 86.0213 49.051 85.776C48.6457 85.5307 48.1603 85.312 47.595 85.12C47.0403 84.928 46.459 84.832 45.851 84.832C45.0297 84.832 44.363 84.9813 43.851 85.28C43.3497 85.568 43.099 86 43.099 86.576C43.099 86.9707 43.2323 87.328 43.499 87.648C43.7763 87.9573 44.1923 88.256 44.747 88.544C45.3123 88.8213 46.027 89.1253 46.891 89.456C47.6803 89.744 48.4217 90.0853 49.115 90.48C49.8083 90.8747 50.4163 91.344 50.939 91.888C51.4723 92.4213 51.8937 93.04 52.203 93.744C52.5123 94.448 52.667 95.248 52.667 96.144C52.667 97.2107 52.4483 98.1387 52.011 98.928C51.5737 99.7067 50.9763 100.352 50.219 100.864C49.4723 101.376 48.619 101.755 47.659 102C46.7097 102.256 45.723 102.384 44.699 102.384C43.2483 102.384 41.947 102.219 40.795 101.888C39.6537 101.557 38.731 101.2 38.027 100.816C37.323 100.432 36.9017 100.176 36.763 100.048L39.147 96.032C39.275 96.128 39.5203 96.2827 39.883 96.496C40.2563 96.7093 40.7097 96.9333 41.243 97.168C41.7763 97.392 42.3417 97.584 42.939 97.744C43.547 97.904 44.1443 97.984 44.731 97.984C45.7123 97.984 46.4483 97.7973 46.939 97.424C47.4297 97.04 47.675 96.5387 47.675 95.92C47.675 95.4613 47.5203 95.0507 47.211 94.688C46.9017 94.3253 46.4377 93.984 45.819 93.664C45.2003 93.3333 44.427 92.9867 43.499 92.624C42.571 92.2507 41.7017 91.7973 40.891 91.264C40.091 90.7307 39.4403 90.064 38.939 89.264C38.4377 88.464 38.187 87.472 38.187 86.288C38.187 85.104 38.5177 84.08 39.179 83.216C39.851 82.3413 40.731 81.6693 41.819 81.2C42.9177 80.7307 44.091 80.496 45.339 80.496ZM61.9653 80.496C63.2773 80.496 64.4239 80.64 65.4053 80.928C66.3866 81.216 67.1759 81.52 67.7733 81.84C68.3706 82.16 68.7333 82.3733 68.8613 82.48L66.5573 86.336C66.3866 86.208 66.0933 86.0213 65.6773 85.776C65.2719 85.5307 64.7866 85.312 64.2213 85.12C63.6666 84.928 63.0853 84.832 62.4773 84.832C61.6559 84.832 60.9893 84.9813 60.4773 85.28C59.9759 85.568 59.7253 86 59.7253 86.576C59.7253 86.9707 59.8586 87.328 60.1253 87.648C60.4026 87.9573 60.8186 88.256 61.3733 88.544C61.9386 88.8213 62.6533 89.1253 63.5173 89.456C64.3066 89.744 65.0479 90.0853 65.7413 90.48C66.4346 90.8747 67.0426 91.344 67.5653 91.888C68.0986 92.4213 68.5199 93.04 68.8293 93.744C69.1386 94.448 69.2933 95.248 69.2933 96.144C69.2933 97.2107 69.0746 98.1387 68.6373 98.928C68.1999 99.7067 67.6026 100.352 66.8453 100.864C66.0986 101.376 65.2453 101.755 64.2853 102C63.3359 102.256 62.3493 102.384 61.3253 102.384C59.8746 102.384 58.5732 102.219 57.4212 101.888C56.2799 101.557 55.3572 101.2 54.6532 100.816C53.9492 100.432 53.5279 100.176 53.3892 100.048L55.7732 96.032C55.9012 96.128 56.1466 96.2827 56.5092 96.496C56.8826 96.7093 57.3359 96.9333 57.8693 97.168C58.4026 97.392 58.9679 97.584 59.5653 97.744C60.1733 97.904 60.7706 97.984 61.3573 97.984C62.3386 97.984 63.0746 97.7973 63.5653 97.424C64.0559 97.04 64.3013 96.5387 64.3013 95.92C64.3013 95.4613 64.1466 95.0507 63.8373 94.688C63.5279 94.3253 63.0639 93.984 62.4453 93.664C61.8266 93.3333 61.0533 92.9867 60.1253 92.624C59.1973 92.2507 58.3279 91.7973 57.5173 91.264C56.7173 90.7307 56.0666 90.064 55.5652 89.264C55.0639 88.464 54.8132 87.472 54.8132 86.288C54.8132 85.104 55.1439 84.08 55.8052 83.216C56.4773 82.3413 57.3573 81.6693 58.4453 81.2C59.5439 80.7307 60.7173 80.496 61.9653 80.496ZM89.705 85.264L90.057 85.328V102H85.273V80.88H91.801L100.361 97.52L100.009 97.584V80.88H104.793V102H98.233L89.705 85.264ZM111.054 85.072H106.014V80.88H120.862V85.072H115.838V102H111.054V85.072Z" fill="#043F63"></path>
<rect x="71" y="81" width="12.2878" height="4.75" fill="#043F63"></rect>
<rect x="71" y="89" width="12.2878" height="4.75" fill="#043F63"></rect>
<rect x="71" y="97.25" width="12.2878" height="4.75" fill="#043F63"></rect>
</svg></svg></g></g><defs><clipPath id="SvgjsClipPath1200"><rect width="1000" height="1000" x="0" y="0" rx="100" ry="100"></rect></clipPath></defs></svg>