<svg width="276" height="45" viewBox="0 0 276 45" fill="none" xmlns="http://www.w3.org/2000/svg">
<rect width="275.288" height="45" fill="#F8F2E8"/>
<path d="M16.264 16.072H11.224V11.88H26.072V16.072H21.048V33H16.264V16.072ZM39.4245 24.504H32.1285V33H27.3605V11.88H32.1285V20.328H39.4245V11.88H44.1765V33H39.4245V24.504Z" fill="#70161E"/>
<rect x="47" y="12" width="12.2878" height="4.75" fill="#70161E"/>
<rect x="47" y="20" width="12.2878" height="4.75" fill="#70161E"/>
<rect x="47" y="28.25" width="12.2878" height="4.75" fill="#70161E"/>
<path d="M72.9198 22.424C72.9198 23.6293 73.1652 24.7227 73.6558 25.704C74.1572 26.6747 74.8452 27.448 75.7198 28.024C76.6052 28.6 77.6292 28.888 78.7918 28.888C79.9545 28.888 80.9732 28.6 81.8478 28.024C82.7332 27.448 83.4212 26.6747 83.9118 25.704C84.4132 24.7227 84.6638 23.6293 84.6638 22.424C84.6638 21.2187 84.4132 20.1307 83.9118 19.16C83.4212 18.1893 82.7332 17.416 81.8478 16.84C80.9732 16.2533 79.9545 15.96 78.7918 15.96C77.6292 15.96 76.6052 16.2533 75.7198 16.84C74.8452 17.416 74.1572 18.1893 73.6558 19.16C73.1652 20.1307 72.9198 21.2187 72.9198 22.424ZM67.9438 22.424C67.9438 20.888 68.2158 19.4587 68.7598 18.136C69.3038 16.8027 70.0665 15.64 71.0478 14.648C72.0292 13.656 73.1812 12.8827 74.5038 12.328C75.8265 11.7733 77.2558 11.496 78.7918 11.496C80.3492 11.496 81.7838 11.7733 83.0958 12.328C84.4185 12.8827 85.5652 13.656 86.5358 14.648C87.5172 15.64 88.2745 16.8027 88.8078 18.136C89.3518 19.4587 89.6238 20.888 89.6238 22.424C89.6238 23.9707 89.3625 25.4107 88.8398 26.744C88.3172 28.0667 87.5705 29.2293 86.5998 30.232C85.6292 31.224 84.4825 31.9973 83.1598 32.552C81.8372 33.1067 80.3812 33.384 78.7918 33.384C77.1705 33.384 75.6932 33.1067 74.3598 32.552C73.0372 31.9973 71.8958 31.224 70.9358 30.232C69.9758 29.2293 69.2345 28.0667 68.7118 26.744C68.1998 25.4107 67.9438 23.9707 67.9438 22.424ZM91.1178 11.88H98.7978C100.153 11.88 101.374 12.12 102.462 12.6C103.55 13.0693 104.414 13.7893 105.054 14.76C105.705 15.72 106.03 16.9253 106.03 18.376C106.03 19.816 105.705 21.0427 105.054 22.056C104.414 23.0587 103.55 23.8267 102.462 24.36C101.374 24.8827 100.153 25.144 98.7978 25.144H95.9018V33H91.1178V11.88ZM95.9018 21.368H97.4698C98.1205 21.368 98.7018 21.272 99.2138 21.08C99.7365 20.888 100.153 20.584 100.462 20.168C100.771 19.7413 100.926 19.1813 100.926 18.488C100.926 17.784 100.771 17.2293 100.462 16.824C100.153 16.408 99.7365 16.1093 99.2138 15.928C98.7018 15.7467 98.1205 15.656 97.4698 15.656H95.9018V21.368ZM126.303 16.264L126.655 16.328V33H121.871V11.88H128.399L136.959 28.52L136.607 28.584V11.88H141.391V33H134.831L126.303 16.264Z" fill="#4D5E19"/>
<path d="M78.7878 26.5L77.7775 23.3906H74.5081L77.1531 21.4688L76.1428 18.3594L78.7878 20.2812L81.4329 18.3594L80.4226 21.4688L83.0676 23.3906H79.7982L78.7878 26.5Z" fill="#4D5E19"/>
<rect x="107.288" y="12" width="12.2878" height="4.75" fill="#4D5E19"/>
<rect x="107.288" y="20" width="12.2878" height="4.75" fill="#4D5E19"/>
<rect x="107.288" y="28.25" width="12.2878" height="4.75" fill="#4D5E19"/>
<path d="M153.664 11.88H160.016C162.267 11.88 164.128 12.3333 165.6 13.24C167.083 14.136 168.192 15.3787 168.928 16.968C169.664 18.5573 170.032 20.376 170.032 22.424C170.032 24.4827 169.664 26.3067 168.928 27.896C168.192 29.4853 167.083 30.7333 165.6 31.64C164.128 32.5467 162.267 33 160.016 33H153.664V11.88ZM158.432 16.12V28.76H159.584C160.789 28.76 161.787 28.488 162.576 27.944C163.365 27.3893 163.957 26.6373 164.352 25.688C164.757 24.728 164.96 23.6507 164.96 22.456C164.96 21.2507 164.763 20.1733 164.368 19.224C163.984 18.264 163.392 17.5067 162.592 16.952C161.792 16.3973 160.789 16.12 159.584 16.12H158.432ZM171.731 11.88H176.515V33H171.731V11.88ZM186.627 11.496C187.939 11.496 189.086 11.64 190.067 11.928C191.048 12.216 191.838 12.52 192.435 12.84C193.032 13.16 193.395 13.3733 193.523 13.48L191.219 17.336C191.048 17.208 190.755 17.0213 190.339 16.776C189.934 16.5307 189.448 16.312 188.883 16.12C188.328 15.928 187.747 15.832 187.139 15.832C186.318 15.832 185.651 15.9813 185.139 16.28C184.638 16.568 184.387 17 184.387 17.576C184.387 17.9707 184.52 18.328 184.787 18.648C185.064 18.9573 185.48 19.256 186.035 19.544C186.6 19.8213 187.315 20.1253 188.179 20.456C188.968 20.744 189.71 21.0853 190.403 21.48C191.096 21.8747 191.704 22.344 192.227 22.888C192.76 23.4213 193.182 24.04 193.491 24.744C193.8 25.448 193.955 26.248 193.955 27.144C193.955 28.2107 193.736 29.1387 193.299 29.928C192.862 30.7067 192.264 31.352 191.507 31.864C190.76 32.376 189.907 32.7547 188.947 33C187.998 33.256 187.011 33.384 185.987 33.384C184.536 33.384 183.235 33.2187 182.083 32.888C180.942 32.5573 180.019 32.2 179.315 31.816C178.611 31.432 178.19 31.176 178.051 31.048L180.435 27.032C180.563 27.128 180.808 27.2827 181.171 27.496C181.544 27.7093 181.998 27.9333 182.531 28.168C183.064 28.392 183.63 28.584 184.227 28.744C184.835 28.904 185.432 28.984 186.019 28.984C187 28.984 187.736 28.7973 188.227 28.424C188.718 28.04 188.963 27.5387 188.963 26.92C188.963 26.4613 188.808 26.0507 188.499 25.688C188.19 25.3253 187.726 24.984 187.107 24.664C186.488 24.3333 185.715 23.9867 184.787 23.624C183.859 23.2507 182.99 22.7973 182.179 22.264C181.379 21.7307 180.728 21.064 180.227 20.264C179.726 19.464 179.475 18.472 179.475 17.288C179.475 16.104 179.806 15.08 180.467 14.216C181.139 13.3413 182.019 12.6693 183.107 12.2C184.206 11.7307 185.379 11.496 186.627 11.496ZM203.253 11.496C204.565 11.496 205.712 11.64 206.693 11.928C207.674 12.216 208.464 12.52 209.061 12.84C209.658 13.16 210.021 13.3733 210.149 13.48L207.845 17.336C207.674 17.208 207.381 17.0213 206.965 16.776C206.56 16.5307 206.074 16.312 205.509 16.12C204.954 15.928 204.373 15.832 203.765 15.832C202.944 15.832 202.277 15.9813 201.765 16.28C201.264 16.568 201.013 17 201.013 17.576C201.013 17.9707 201.146 18.328 201.413 18.648C201.69 18.9573 202.106 19.256 202.661 19.544C203.226 19.8213 203.941 20.1253 204.805 20.456C205.594 20.744 206.336 21.0853 207.029 21.48C207.722 21.8747 208.33 22.344 208.853 22.888C209.386 23.4213 209.808 24.04 210.117 24.744C210.426 25.448 210.581 26.248 210.581 27.144C210.581 28.2107 210.362 29.1387 209.925 29.928C209.488 30.7067 208.89 31.352 208.133 31.864C207.386 32.376 206.533 32.7547 205.573 33C204.624 33.256 203.637 33.384 202.613 33.384C201.162 33.384 199.861 33.2187 198.709 32.888C197.568 32.5573 196.645 32.2 195.941 31.816C195.237 31.432 194.816 31.176 194.677 31.048L197.061 27.032C197.189 27.128 197.434 27.2827 197.797 27.496C198.17 27.7093 198.624 27.9333 199.157 28.168C199.69 28.392 200.256 28.584 200.853 28.744C201.461 28.904 202.058 28.984 202.645 28.984C203.626 28.984 204.362 28.7973 204.853 28.424C205.344 28.04 205.589 27.5387 205.589 26.92C205.589 26.4613 205.434 26.0507 205.125 25.688C204.816 25.3253 204.352 24.984 203.733 24.664C203.114 24.3333 202.341 23.9867 201.413 23.624C200.485 23.2507 199.616 22.7973 198.805 22.264C198.005 21.7307 197.354 21.064 196.853 20.264C196.352 19.464 196.101 18.472 196.101 17.288C196.101 16.104 196.432 15.08 197.093 14.216C197.765 13.3413 198.645 12.6693 199.733 12.2C200.832 11.7307 202.005 11.496 203.253 11.496ZM230.993 16.264L231.345 16.328V33H226.561V11.88H233.089L241.649 28.52L241.297 28.584V11.88H246.081V33H239.521L230.993 16.264ZM252.342 16.072H247.302V11.88H262.15V16.072H257.126V33H252.342V16.072Z" fill="#043F63"/>
<rect x="212.288" y="12" width="12.2878" height="4.75" fill="#043F63"/>
<rect x="212.288" y="20" width="12.2878" height="4.75" fill="#043F63"/>
<rect x="212.288" y="28.25" width="12.2878" height="4.75" fill="#043F63"/>
</svg>
