<svg width="254" height="23" viewBox="0 0 254 23" fill="none" xmlns="http://www.w3.org/2000/svg">
<path d="M5.264 5.072H0.224V0.879999H15.072V5.072H10.048V22H5.264V5.072ZM28.4245 13.504H21.1285V22H16.3605V0.879999H21.1285V9.328H28.4245V0.879999H33.1765V22H28.4245V13.504Z" fill="#70161E"/>
<rect x="36" y="1" width="12.2878" height="4.75" fill="#70161E"/>
<rect x="36" y="9" width="12.2878" height="4.75" fill="#70161E"/>
<rect x="36" y="17.25" width="12.2878" height="4.75" fill="#70161E"/>
<path d="M61.9198 11.424C61.9198 12.6293 62.1651 13.7227 62.6558 14.704C63.1571 15.6747 63.8451 16.448 64.7198 17.024C65.6051 17.6 66.6291 17.888 67.7918 17.888C68.9544 17.888 69.9731 17.6 70.8478 17.024C71.7331 16.448 72.4211 15.6747 72.9118 14.704C73.4131 13.7227 73.6638 12.6293 73.6638 11.424C73.6638 10.2187 73.4131 9.13067 72.9118 8.16C72.4211 7.18933 71.7331 6.416 70.8478 5.84C69.9731 5.25333 68.9544 4.96 67.7918 4.96C66.6291 4.96 65.6051 5.25333 64.7198 5.84C63.8451 6.416 63.1571 7.18933 62.6558 8.16C62.1651 9.13067 61.9198 10.2187 61.9198 11.424ZM56.9438 11.424C56.9438 9.888 57.2158 8.45867 57.7598 7.136C58.3038 5.80267 59.0664 4.64 60.0478 3.648C61.0291 2.656 62.1811 1.88267 63.5038 1.328C64.8264 0.773332 66.2558 0.495998 67.7918 0.495998C69.3491 0.495998 70.7838 0.773332 72.0958 1.328C73.4184 1.88267 74.5651 2.656 75.5358 3.648C76.5171 4.64 77.2744 5.80267 77.8078 7.136C78.3518 8.45867 78.6238 9.888 78.6238 11.424C78.6238 12.9707 78.3624 14.4107 77.8398 15.744C77.3171 17.0667 76.5704 18.2293 75.5998 19.232C74.6291 20.224 73.4824 20.9973 72.1598 21.552C70.8371 22.1067 69.3811 22.384 67.7918 22.384C66.1704 22.384 64.6931 22.1067 63.3598 21.552C62.0371 20.9973 60.8958 20.224 59.9358 19.232C58.9758 18.2293 58.2344 17.0667 57.7118 15.744C57.1998 14.4107 56.9438 12.9707 56.9438 11.424ZM80.1178 0.879999H87.7978C89.1524 0.879999 90.3738 1.12 91.4618 1.6C92.5498 2.06933 93.4138 2.78933 94.0538 3.76C94.7044 4.72 95.0298 5.92533 95.0298 7.376C95.0298 8.816 94.7044 10.0427 94.0538 11.056C93.4138 12.0587 92.5498 12.8267 91.4618 13.36C90.3738 13.8827 89.1524 14.144 87.7978 14.144H84.9018V22H80.1178V0.879999ZM84.9018 10.368H86.4698C87.1204 10.368 87.7018 10.272 88.2138 10.08C88.7364 9.888 89.1524 9.584 89.4618 9.168C89.7711 8.74133 89.9258 8.18133 89.9258 7.488C89.9258 6.784 89.7711 6.22933 89.4618 5.824C89.1524 5.408 88.7364 5.10933 88.2138 4.928C87.7018 4.74667 87.1204 4.656 86.4698 4.656H84.9018V10.368ZM115.303 5.264L115.655 5.328V22H110.871V0.879999H117.399L125.959 17.52L125.607 17.584V0.879999H130.391V22H123.831L115.303 5.264Z" fill="#4D5E19"/>
<path d="M67.7878 15.5L66.7775 12.3906H63.508L66.1531 10.4688L65.1427 7.35942L67.7878 9.28115L70.4328 7.35942L69.4225 10.4688L72.0675 12.3906H68.7981L67.7878 15.5Z" fill="#4D5E19"/>
<rect x="96.2878" y="1" width="12.2878" height="4.75" fill="#4D5E19"/>
<rect x="96.2878" y="9" width="12.2878" height="4.75" fill="#4D5E19"/>
<rect x="96.2878" y="17.25" width="12.2878" height="4.75" fill="#4D5E19"/>
<path d="M142.664 0.879999H149.016C151.267 0.879999 153.128 1.33333 154.6 2.24C156.083 3.136 157.192 4.37867 157.928 5.968C158.664 7.55733 159.032 9.376 159.032 11.424C159.032 13.4827 158.664 15.3067 157.928 16.896C157.192 18.4853 156.083 19.7333 154.6 20.64C153.128 21.5467 151.267 22 149.016 22H142.664V0.879999ZM147.432 5.12V17.76H148.584C149.789 17.76 150.787 17.488 151.576 16.944C152.365 16.3893 152.957 15.6373 153.352 14.688C153.757 13.728 153.96 12.6507 153.96 11.456C153.96 10.2507 153.763 9.17333 153.368 8.224C152.984 7.264 152.392 6.50667 151.592 5.952C150.792 5.39733 149.789 5.12 148.584 5.12H147.432ZM160.731 0.879999H165.515V22H160.731V0.879999ZM175.627 0.495998C176.939 0.495998 178.086 0.639999 179.067 0.927999C180.048 1.216 180.838 1.52 181.435 1.84C182.032 2.16 182.395 2.37333 182.523 2.48L180.219 6.336C180.048 6.208 179.755 6.02133 179.339 5.776C178.934 5.53067 178.448 5.312 177.883 5.12C177.328 4.928 176.747 4.832 176.139 4.832C175.318 4.832 174.651 4.98133 174.139 5.28C173.638 5.568 173.387 6 173.387 6.576C173.387 6.97067 173.52 7.328 173.787 7.648C174.064 7.95733 174.48 8.256 175.035 8.544C175.6 8.82133 176.315 9.12533 177.179 9.456C177.968 9.744 178.71 10.0853 179.403 10.48C180.096 10.8747 180.704 11.344 181.227 11.888C181.76 12.4213 182.182 13.04 182.491 13.744C182.8 14.448 182.955 15.248 182.955 16.144C182.955 17.2107 182.736 18.1387 182.299 18.928C181.862 19.7067 181.264 20.352 180.507 20.864C179.76 21.376 178.907 21.7547 177.947 22C176.998 22.256 176.011 22.384 174.987 22.384C173.536 22.384 172.235 22.2187 171.083 21.888C169.942 21.5573 169.019 21.2 168.315 20.816C167.611 20.432 167.19 20.176 167.051 20.048L169.435 16.032C169.563 16.128 169.808 16.2827 170.171 16.496C170.544 16.7093 170.998 16.9333 171.531 17.168C172.064 17.392 172.63 17.584 173.227 17.744C173.835 17.904 174.432 17.984 175.019 17.984C176 17.984 176.736 17.7973 177.227 17.424C177.718 17.04 177.963 16.5387 177.963 15.92C177.963 15.4613 177.808 15.0507 177.499 14.688C177.19 14.3253 176.726 13.984 176.107 13.664C175.488 13.3333 174.715 12.9867 173.787 12.624C172.859 12.2507 171.99 11.7973 171.179 11.264C170.379 10.7307 169.728 10.064 169.227 9.264C168.726 8.464 168.475 7.472 168.475 6.288C168.475 5.104 168.806 4.08 169.467 3.216C170.139 2.34133 171.019 1.66933 172.107 1.2C173.206 0.730665 174.379 0.495998 175.627 0.495998ZM192.253 0.495998C193.565 0.495998 194.712 0.639999 195.693 0.927999C196.674 1.216 197.464 1.52 198.061 1.84C198.658 2.16 199.021 2.37333 199.149 2.48L196.845 6.336C196.674 6.208 196.381 6.02133 195.965 5.776C195.56 5.53067 195.074 5.312 194.509 5.12C193.954 4.928 193.373 4.832 192.765 4.832C191.944 4.832 191.277 4.98133 190.765 5.28C190.264 5.568 190.013 6 190.013 6.576C190.013 6.97067 190.146 7.328 190.413 7.648C190.69 7.95733 191.106 8.256 191.661 8.544C192.226 8.82133 192.941 9.12533 193.805 9.456C194.594 9.744 195.336 10.0853 196.029 10.48C196.722 10.8747 197.33 11.344 197.853 11.888C198.386 12.4213 198.808 13.04 199.117 13.744C199.426 14.448 199.581 15.248 199.581 16.144C199.581 17.2107 199.362 18.1387 198.925 18.928C198.488 19.7067 197.89 20.352 197.133 20.864C196.386 21.376 195.533 21.7547 194.573 22C193.624 22.256 192.637 22.384 191.613 22.384C190.162 22.384 188.861 22.2187 187.709 21.888C186.568 21.5573 185.645 21.2 184.941 20.816C184.237 20.432 183.816 20.176 183.677 20.048L186.061 16.032C186.189 16.128 186.434 16.2827 186.797 16.496C187.17 16.7093 187.624 16.9333 188.157 17.168C188.69 17.392 189.256 17.584 189.853 17.744C190.461 17.904 191.058 17.984 191.645 17.984C192.626 17.984 193.362 17.7973 193.853 17.424C194.344 17.04 194.589 16.5387 194.589 15.92C194.589 15.4613 194.434 15.0507 194.125 14.688C193.816 14.3253 193.352 13.984 192.733 13.664C192.114 13.3333 191.341 12.9867 190.413 12.624C189.485 12.2507 188.616 11.7973 187.805 11.264C187.005 10.7307 186.354 10.064 185.853 9.264C185.352 8.464 185.101 7.472 185.101 6.288C185.101 5.104 185.432 4.08 186.093 3.216C186.765 2.34133 187.645 1.66933 188.733 1.2C189.832 0.730665 191.005 0.495998 192.253 0.495998ZM219.993 5.264L220.345 5.328V22H215.561V0.879999H222.089L230.649 17.52L230.297 17.584V0.879999H235.081V22H228.521L219.993 5.264ZM241.342 5.072H236.302V0.879999H251.15V5.072H246.126V22H241.342V5.072Z" fill="#043F63"/>
<rect x="201.288" y="1" width="12.2878" height="4.75" fill="#043F63"/>
<rect x="201.288" y="9" width="12.2878" height="4.75" fill="#043F63"/>
<rect x="201.288" y="17.25" width="12.2878" height="4.75" fill="#043F63"/>
</svg>
